<svg width="178" height="115" fill="none" class="ci-aj only-wide peep ci_af"><path fill-rule="evenodd" clip-rule="evenodd" d="M175.768 97.586c1.583-.076.946-2.837.833-3.85-1.254-3.703-.959-7.743-1.452-11.624-.307-3.623-.702-7.235-1.034-10.855-.651-7.35-5.332-22.31-10.674-24.716-.673-2.943-3.452-5.69-6.968-5.69-2.398-2.831-5.285-4.823-8.987-4.42-1.53.069-3.014 1.686-4.48 1.999-.821.113-8.106-.178-9.565.686-1.017.52-1.934 1.482-1.635 2.706.477 1.483-1.005-.121-4.097 1.462-6.304 3.774-2.537 8.824-2.37 8.98-3.934 5.457-7.372 9.884-8.963 16.554-1.031 4.951-.915 10.063-1.779 15.04-.305 1.726-.773 3.393-1.279 5.069-.549 2.193-.816 7.66-1.118 7.709-.551.136.318 1.264.902 1.265 16.187 2.677 32.629.11 48.903-.308 4.586-.16 9.177-.196 13.763-.007Z" fill="#fff"></path><path fill-rule="evenodd" clip-rule="evenodd" d="M151.234 52.746a.058.058 0 0 1 .116 0l.114 1.1c.139 1.343.273 2.684.37 4.033.121 1.683.202 3.366.241 5.053.136 5.874.163 11.751.174 17.627a509.724 509.724 0 0 1 4.015-.26l1.38-.084.568-.035c.384-.023.82-.12 1.089.22.107.135.161.312.061.473-.231.371-.586.358-.988.374-.378.016-.757.03-1.136.045a226.682 226.682 0 0 1-4.99.142c-.009 2.48-.112 4.958-.223 7.435l-.05 1.115a379.308 379.308 0 0 1-.491 9.045c-.017.247-.367.246-.384 0-.234-3.391-.389-6.79-.542-10.185a224.821 224.821 0 0 1-.207-7.388l-.338.002c-3.196.014-6.392.028-9.589-.002a.058.058 0 0 1 .014.021c.232.544.254 1.24.248 1.823a8.964 8.964 0 0 1-.252 1.984c-.554 2.335-1.985 4.426-3.614 6.154l-.054.057c-.384.404-.825.811-1.061 1.327-.241.526-.324 1.142-.443 1.708l-.014.065-.465 2.142c-.148.68-.19 1.672-.73 2.163-.504.458-1.172.219-1.409-.371-.185-.46 0-.965.109-1.425l.86-3.602c.141-.587.295-1.178.6-1.706.312-.54.77-.932 1.236-1.332a15.274 15.274 0 0 0 2.383-2.569 13.091 13.091 0 0 0 1.684-3.067 11.09 11.09 0 0 0 .491-1.684c.11-.542.109-1.104.228-1.64.008-.038.039-.063.075-.074-.008-.024.005-.056.038-.059l2.615-.167c2.323-.15 4.647-.303 6.969-.478l.41-.03c-.032-3.286-.005-6.573.055-9.86.054-3.015.056-6.03.146-9.045.044-1.496.141-2.989.248-4.482.11-1.527.285-3.04.443-4.563Zm-24.547 17.48c-.027-.167.184-.27.281-.118 1.113 1.75 1.65 3.65 1.876 5.697.2 1.807.141 3.64.042 5.45-.106 1.933-.23 3.865-.355 5.796l-.193 2.96-.483 7.424c-.034.531-.155 1.014-.614 1.261a1.084 1.084 0 0 1-.189.13c-.248.132-.576.065-.719-.189l.057.038c.05.031-.006-.013-.169-.131l-.137-.178a1.095 1.095 0 0 1-.19-.476c-.04-.278.011-.582.03-.86l.316-4.868c.246-3.785.534-7.568.75-11.354.101-1.765.172-3.531.124-5.299-.048-1.758-.137-3.546-.427-5.283Zm9.631-32.586.061-.01c2.211-.367 4.616-.298 6.636.764.017.009.01.037-.009.036l-.651-.026c-2.059-.08-4.111-.128-6.136.354l-.207.05c-.729.177-1.491.394-2.076.874-.56.46-.839 1.167-1.107 1.82l-.036.085c-.272.644-.616 1.254-1.212 1.657-.772.52-1.7.457-2.585.528-1.559.125-2.833 1.25-3.467 2.629-.384.834-.548 1.77-.58 2.682a8.39 8.39 0 0 0 .043 1.409c.02.148.203.685.296.672.207-.029.397.08.462.244a33.91 33.91 0 0 1 1.582-1.434 30.475 30.475 0 0 1 4.353-3.09c1.174-.684 2.412-1.362 3.693-1.874a.61.61 0 0 0-.298.068c-.043.022-.085-.03-.051-.066.403-.423.887-.484 1.374-.37.104-.034.208-.066.313-.096.052-.015.078.056.035.084l-.119.076c.532.178 1.054.527 1.467.802 1.188.792 2.233 1.759 3.292 2.708l.193.172c.933.83 1.889 1.637 2.949 2.303.554.349 1.137.671 1.748.911.524.206 1.378.336 1.623.888.218.264.127.601-.129.78-.43.472-1.293.167-1.806-.03a12.194 12.194 0 0 1-1.791-.858c-1.111-.65-2.135-1.458-3.089-2.318-.996-.898-1.936-1.852-2.905-2.778-.419-.401-.83-.812-1.25-1.212l-.211-.2c-.215-.2-.521-.513-.847-.703-.616.367-1.242.718-1.852 1.093a44.158 44.158 0 0 0-2.493 1.668 38.123 38.123 0 0 0-4.431 3.712c-2.529 2.462-4.683 5.272-6.565 8.249l-.143.226c-1.069 1.704-2.081 3.462-2.798 5.345-.789 2.07-1.172 4.249-1.381 6.448-.207 2.183-.277 4.377-.508 6.557-.237 2.237-.704 4.425-1.235 6.608l-.127.517c-.481 1.956-.977 3.911-1.225 5.913a23.42 23.42 0 0 0-.193 3.23c.018 1.084.189 2.144.327 3.217.053.41-.353.754-.716.808-.417.063-.776-.203-.906-.59-.404-1.205-.478-2.537-.465-3.802.013-1.284.177-2.56.409-3.821.455-2.483 1.157-4.914 1.744-7.366a43.85 43.85 0 0 0 1.052-6.542c.194-2.297.311-4.603.665-6.884a22.758 22.758 0 0 1 2.002-6.456c.904-1.87 2.031-3.629 3.213-5.335 1.435-2.07 3.011-4.042 4.773-5.837a.979.979 0 0 1-.47-.15c-.456-.285-.669-.84-.734-1.347-.153-1.187-.116-2.425.19-3.585.493-1.87 1.775-3.533 3.631-4.208.478-.173.986-.237 1.493-.25.481-.011 1.005.051 1.469-.1.738-.242 1.055-1.11 1.332-1.766l.013-.03c.355-.838.782-1.555 1.551-2.078.822-.558 1.851-.812 2.82-.975Zm21.009 3.31c.664-.23 1.495-.02 2.144.18.724.224 1.393.636 1.967 1.125a5.914 5.914 0 0 1 1.458 1.866l.034.068c.323.66.69 1.567.527 2.293a.554.554 0 0 1-.016.06c1.319.646 2.536 1.457 3.596 2.484 1.235 1.196 2.28 2.557 3.165 4.027 3.513 5.84 4.131 12.852 4.546 19.511l.104 1.689c.225 3.646.489 7.283 1.174 10.879l.05.26c.732 3.764 1.78 7.558 1.674 11.42-.032 1.157-1.747 1.149-1.797 0-.187-4.326-1.2-8.503-1.886-12.76-1.206-7.492-.602-15.216-2.311-22.632-.671-2.91-1.71-5.734-3.194-8.332-.733-1.283-1.571-2.524-2.554-3.63-.845-.954-1.724-1.87-2.711-2.671-.316.315-.946.154-1.111-.305-.113-.316-.08-.685-.153-1.016a5.148 5.148 0 0 0-.284-.9 5.948 5.948 0 0 0-1.028-1.596 6.6 6.6 0 0 0-1.552-1.269c-.585-.348-1.225-.452-1.842-.706-.021-.009-.023-.036 0-.044Zm2.581 40.038a.035.035 0 0 1 .059-.024c.233.213.374.52.545.783.198.303.406.6.623.89.437.579.922 1.125 1.412 1.66.455.498.94.974 1.443 1.424.546.486 1.157.92 1.652 1.46 1.034 1.125 1.201 2.669 1.419 4.119l.024.157a90.032 90.032 0 0 1 .507 3.849l.013.133c.038.412.048.83-.19 1.191-.254.386-.832.52-1.176.151-.59-.635-.48-1.763-.557-2.58a76.35 76.35 0 0 0-.216-2.024l-.041-.337c-.095-.766-.172-1.548-.348-2.301-.155-.663-.45-1.164-.935-1.645-.488-.484-.996-.935-1.446-1.457a14.365 14.365 0 0 1-1.298-1.764c-.333-.529-.599-1.105-.843-1.68l-.041-.096c-.235-.56-.624-1.29-.606-1.909Zm8.528-24.093c.005-.078.121-.08.122 0l.043 2.019c.113 5.422.043 10.857.589 16.26.257 2.549.731 5.06 1.28 7.56.28 1.278.575 2.555.854 3.834.273 1.247.565 2.5.782 3.758.212 1.237.402 2.483.488 3.736l.01.163c.037.607.213 1.5-.123 2.038-.363.582-1.058.593-1.447.037-.366-.523-.275-1.451-.339-2.075a93.443 93.443 0 0 0-.214-1.903 80.866 80.866 0 0 0-.567-3.694c-.439-2.555-1.075-5.078-1.545-7.629-.481-2.614-.824-5.246-.838-7.908-.014-2.684.271-5.362.414-8.04.147-2.72.313-5.438.491-8.156Zm-25.693-16.866a.961.961 0 0 1 1.164-.659c.461.127.841.684.661 1.161-.197.52-.54.964-.83 1.437-.267.438-.657.782-.93 1.211l.3.323c.151.16.301.32.454.478l.523.541c.408.42.819.839 1.241 1.244 1.241 1.194 2.502 2.348 3.891 3.37.317.233.636.464.964.68l.122.081c.225.147.476.291.747.267.66-.06 1.257-.76 1.71-1.195l.024-.023a25.386 25.386 0 0 0 3.075-3.486c.202-.278.398-.561.589-.848-.44-.512-.335-1.513-.36-2.134-.017-.437-.018-.874-.02-1.311l-.002-.088c-.005-.284-.018-.555.167-.788.01-.013.032-.013.046-.006.252.132.33.353.438.6l.011.026c.131.297.257.597.384.896.133.313.254.63.378.947a22.686 22.686 0 0 1 .267.728l.008.007c.046.039.085.08.119.122.141.07.252.198.305.386.114.41-.122.743-.333 1.068a25.747 25.747 0 0 1-2.919 3.718 24.881 24.881 0 0 1-1.697 1.621l-.103.09c-.531.454-1.107.884-1.815.99-.83.125-1.504-.286-2.139-.76l-.063-.047a34.984 34.984 0 0 1-1.763-1.416c-1.164-1.002-2.272-2.079-3.256-3.26-.956-1.148-1.902-2.433-2.491-3.815-.036-.084.058-.172.132-.102.288.273.565.562.839.854.008-.43-.072-.863-.027-1.296.054-.525.038-1.106.189-1.612Z" fill="#2B283A"></path><path fill-rule="evenodd" clip-rule="evenodd" d="M165.536 28.55c-.53-3.825-1.744-7.54-1.919-11.424l-.311-4.986c-.039-1.038-1.389-1.388-1.904-.468-1.172-1.299-3.27-1.107-4.871-1.068-9.423.334-18.378 6.7-21.612 15.575a.85.85 0 0 0 .033.638c-1.508 5.023 3.825 8.258 7.461 10.498 1.476 1.557 3.21 2.851 5.168 3.738a18.138 18.138 0 0 0 7.248 1.705c.546.013.875-.429.914-.885.794-.185 2.153.028 2.572-.785 4.788-2.078 7.908-7.344 7.221-12.537Z" fill="#fff"></path><path fill-rule="evenodd" clip-rule="evenodd" d="M163.296 14.982c-.013-.124.166-.128.203-.028.303.826.618 1.647.858 2.494.232.816.399 1.65.568 2.482.28 1.379.521 2.768.721 4.162.426-.332.983-.363 1.508-.104.247.122.341.442.282.692-.048.2-.106.398-.175.593.148.131.275.293.367.48.241.49.163 1.005-.053 1.473l.048.086c.314.608.146 1.154-.084 1.748-.171.444-.075.945-.446 1.28a3.388 3.388 0 0 1-.603 1.145.75.75 0 0 1-.273.28 12.54 12.54 0 0 1-.227 1.946c-.503 2.501-2.1 4.73-4.077 6.302-1.935 1.538-4.207 2.458-6.658 2.755a12.152 12.152 0 0 1-3.564-.108l-.147-.026c-1.089-.197-2.408-.524-3.161-1.345-.396-.432-.165-1.382.536-1.293.371.048.694.107 1.043.244.273.107.546.21.826.297a9.764 9.764 0 0 0 1.646.368c1.159.15 2.363.11 3.509-.115 2.084-.411 4.108-1.358 5.689-2.785 1.838-1.657 2.915-3.803 3.073-6.278.177-2.756-.141-5.578-.406-8.32a83.79 83.79 0 0 0-.522-4.267c-.206-1.385-.329-2.768-.481-4.158Zm-16.265-8.9.089-.014c3.538-.537 7.261-.5 10.587.96.637.28 1.261.617 1.848 1.008.421-.044.844-.08 1.26-.085.523-.007 1.033.265 1.098.793.49.061.941.241 1.23.602.112.14.187.302.226.471.301.071.596.18.876.324.341.175.537.662.417 1.023a2.504 2.504 0 0 1-.095.24l-.027.057.016.022c.272.437.083 1.01-.333 1.27a3.203 3.203 0 0 1-1.02.426c.029.144.056.288.078.435.009.059-.067.101-.101.043 0 0 .128.4.322.84.076.174-.167.328-.26.153-.248-.467-.401-.946-.625-1.427a1.75 1.75 0 0 1-.613-.151.679.679 0 0 1-.3-.279c-.005.005-.007.011-.011.017-.668.859-1.974 1.16-2.982 1.431-1.084.292-2.193.472-3.306.605-1.943.23-3.902.274-5.855.364l-.387.018c-.793.695-1.815 1.127-2.863 1.259a5.208 5.208 0 0 1-1.754-.086c-.216.22-.488.383-.785.466-.054 1.108-.672 2.157-1.607 2.768l.017.066c.232.946.229 1.98-.603 2.637a2.026 2.026 0 0 1-.366.229l.029.065c.43 1.004.567 2.113-.241 2.947-.328.337-.904.258-1.149-.13l-.012-.02-.043-.068a.205.205 0 0 1-.105.104c-.307.132-.43.035-.71-.101a4.705 4.705 0 0 0-1.495-.421c-1.444.55-2.377 2.242-2.155 3.83.12.864.595 1.72 1.423 2.078.362.158.788.224 1.18.17.53-.072.938-.405 1.488-.215a.515.515 0 0 1 .364.478c.019.366-.11.64-.329.843.385.321.696.767 1.03 1.124.419.445.843.89 1.295 1.302.426.39.88.752 1.361 1.073l.05.033c.603.392 1.361.74 1.39 1.56.01.246-.14.473-.343.6-.76.47-1.586-.148-2.181-.6-.239-.182-.472-.37-.696-.566a.994.994 0 0 1-.484-.088 3.5 3.5 0 0 1-.321-.163c-.341.086-.662.01-.927-.168a2.563 2.563 0 0 1-1.13.03 1.898 1.898 0 0 1-.826-.416 1.778 1.778 0 0 1-1.493-.167 1.544 1.544 0 0 1-.629-.716.64.64 0 0 1-.104-.333v-.047a1.538 1.538 0 0 1-1.152-.46 1.592 1.592 0 0 1-.454-1.059 2.09 2.09 0 0 1-1.09-.736c-.48-.62-.545-1.387-.297-2.072a1.181 1.181 0 0 1-.044-.111c-.383-.54-.636-1.193-.616-1.846a1.68 1.68 0 0 1 .037-.3c-.378-.2-.656-.553-.685-1a1.322 1.322 0 0 1 .331-.954 1.665 1.665 0 0 1-.126-.84 1.62 1.62 0 0 1 .291-.765 1.186 1.186 0 0 1 .013-.237 2.113 2.113 0 0 1-.034-.243c-.072-.906.554-1.7 1.317-2.118.2-.11.417-.2.634-.276.157-.056.394-.074.533-.177-.006-.004.052-.078.062-.118.011-.049.023-.097.029-.147.022-.21.005-.425.001-.636-.018-.956.011-1.915.112-2.866.187-1.762.648-3.487 1.547-5.027.754-1.29 1.787-2.38 2.971-3.285 2.359-1.8 5.302-2.778 8.212-3.23ZM136.1 28c-.307-.738 1.139-.745 1.521-.71l.011.001c.86.086 2.205.5 2.557 1.366.146.36-.285.748-.63.63-.338-.115-.528-.363-.799-.58a3.308 3.308 0 0 0-.221-.162c.04.127.104.243.192.33l.021.02c.416.374-.328.961-.604.466a1.31 1.31 0 0 1-.161-.85.981.981 0 0 1 .072-.246c-.027-.014-.054-.03-.082-.042l-.05-.023c-.331-.15-1.745-.74-1.733-.213.001.058-.075.059-.094.013Z" fill="#2B283A"></path><path fill-rule="evenodd" clip-rule="evenodd" d="M158.22 41.367s-3.497.513-5.063-.213c-1.561-.723-3.079-1.423-4.495-2.381-1.45-.982-2.681-2.148-3.559-3.64-.818-1.388-1.497-2.861-2.181-4.323-.04-.085-.432-.935-.571-1.22-.213-.441-.837-.302-.837.383 0 .686-.031 5.877 1.168 7.919 1.082 1.844 2.915 3.133 4.737 4.258 2.015 1.243 4.693 2.588 7.097 2.943 2.176.321 4.66-.581 6.236-2.068 1.647-1.555 2.114-3.667 2.964-5.69.19-.453-.484-.726-.681-.28-.372.837-4.815 4.312-4.815 4.312Z" fill="#2B283A"></path><path fill-rule="evenodd" clip-rule="evenodd" d="M155.964 37.057a3.683 3.683 0 0 1-1.547-1.187.71.71 0 0 1-.145-.553.801.801 0 0 1 .312-.5.747.747 0 0 1 .559-.151c.169.027.338.12.472.311l.028.039c.236.318.543.579.894.747.337.162.715.238 1.105.194.744-.084 1.257-.485 1.802-1.03.068-.069.135-.14.203-.212a.32.32 0 0 1 .169-.129.362.362 0 0 1 .232.004.366.366 0 0 1 .183.138.334.334 0 0 1 .058.223c-.05.565-.346 1.068-.767 1.464a3.412 3.412 0 0 1-1.669.85 3.397 3.397 0 0 1-1.889-.208Zm2.192-8.707c.684.414 1.724 1.379.99 2.405-.866.905-2.111-.133-2.725-.602-.569-.363-1.209.572-.68.996 4.435 3.273 6.235-2.691 2.761-3.286-.383-.066-.525.359-.346.487Zm-7.948-3.808c.076-.934 1.503-1.146 1.645-.221.127.827-.023 1.588-.397 2.333-.357.712-1.256.38-1.324-.268-.091-.87.029-1.263.076-1.844Zm10.863-.413c.199-.26.486-.437.83-.337 1.075.313.758 1.835.381 2.575-.205.403-.869.505-1.168.15-.489-.577-.723-1.73-.102-2.3a.824.824 0 0 1 .059-.088Zm-9.63-3.673.17-.03c.525-.09 1.179-.177 1.55.244.197.223.265.638 0 .852-.466.376-.981.23-1.54.262-.46.026-.902.102-1.346.229-.973.277-1.765.782-2.596 1.338-.109.073-.22-.066-.168-.168.479-.936 1.409-1.705 2.34-2.174.496-.25 1.04-.458 1.59-.553Zm8.649-.42.13.027c1.415.295 3.253.884 3.923 2.269.026.195-.001.238-.023.265l-.007.009c-.019.023-.033.056-.118.082a4.067 4.067 0 0 1-.857-.323l-.255-.125a7.017 7.017 0 0 0-.911-.387 10.753 10.753 0 0 0-2.074-.457.855.855 0 0 1-.417-.157.62.62 0 0 1-.232-.353.632.632 0 0 1 .071-.53.673.673 0 0 1 .329-.282.771.771 0 0 1 .441-.038Z" fill="#2B283A"></path><path fill-rule="evenodd" clip-rule="evenodd" d="M165.855 28.525c-.947.987-2.528 1.27-3.788.74-3.235-1.362-1.651-5.611.843-6.752.312-.079.728-.264 1.108-.307.034-.017.109.033.2-.014 2.75.31 3.377 4.614 1.637 6.333Zm-10.434.253c-1.062 1.42-3.036 1.858-4.65 1.198-3.187-1.266-2.056-5.034.124-6.51 4.606-1.745 6.508 2.694 4.526 5.312Zm-6.909-3.146-.009-.004.051-.023-.017.043c-.008-.005-.015-.012-.025-.017Zm19.535-1.535c-.26 0-.635.043-.851.225-.531-1.804-2.49-3.474-4.194-2.257-1.342.435-2.337 1.4-2.903 2.683-1.021-.612-2.625-.351-3.51.458-.579-1.93-2.006-2.606-3.703-2.706-1.853-.306-3.7 1.508-4.276 2.963-.479-.055-1.195-.208-1.646.09-2.925-.774-8.039-1.2-8.634-.77-.424.164-.656 1.172-.064 1.226.516-.073-.061-.739.459-.811 2.771-.173 5.461.39 8.202.625.244.332 1.035.443 1.457.31-.664 2.468.77 4.147 2.919 4.65 3.328.77 6.223-2.23 5.353-5.351 1.008-.505 2.167-.484 3.265-.217-1.835 6.807 9.042 6.502 7.343-.66 1.131.567 1.376-.344.783-.458Z" fill="#2B283A"></path><path fill-rule="evenodd" clip-rule="evenodd" d="M87.539 41.897c1.1-.304 2.366-.269 3.495-.191 1.147.079 2.378.214 3.454.641.936.371 1.725.995 2.205 1.89.395.735.58 1.541.697 2.36.047.335.087.671.125 1.008l.078.7c.03.267.057.467.11.766.148.825.354 1.515.813 2.116 1.112 1.454 2.927 1.94 4.579 2.56 1.056.398 1.893 1.112 2.125 2.26.224 1.108 8.739 10.398 9.575 11.181l.023.022c.649.582.572 1.676.663 2.475a241.106 241.106 0 0 1 .755 7.803c.545 6.825.792 13.675.74 20.523l-.003.388c-.009.869-.002 1.741-.041 2.61-.038.834-.291 1.669-1.067 2.105-.718.404-1.626.368-2.429.409l-.048.002c-.862.047-1.724.086-2.586.118-3.505.129-7.012.143-10.519.127-6.956-.032-13.92-.185-20.87.204-1.771.099-7.419-.503-9.185-.331-1.688.163-.24.989-1.282.934-3.43-.179-6.682-.941-9.968-1.86a.996.996 0 0 1-.72-.942 447.784 447.784 0 0 1 1.567-32.178l.068-.78c.087-1.005.137-2.029.335-3.02.197-.981.642-1.831 1.287-2.591.579-.682 7.134-6.018 8.713-7.028 1.511-.967 3.098-1.783 4.65-2.679.645-.373 1.265-.239 1.816-.696.291-.241 4.509-1.867 5.647-2.404l.034-.016c.87-.416 1.672-.868 2.274-1.588.202-.242.597-1.763.598-2.25.001-.868-.065-1.782.198-2.624a2.982 2.982 0 0 1 2.094-2.024Zm1.866 22.39-6.74 13.086h4.383l-3.142 7.271h6.9l-2.448 10.184 13.995-17.455h-5.252l5.252-6.872h-3.642l3.642-5.82-12.948-.394Z" fill="#fff"></path><path fill-rule="evenodd" clip-rule="evenodd" d="M112.046 71.646a2.361 2.361 0 0 0-.048.047.736.736 0 0 0 .048-.077v.03Zm-13.099-3.812c-.605.77-1.246 2.34-1.834 3.124l-.249.339c-.244.34.082.862.484.84.802-.043 1.603-.103 2.404-.163-1.646 1.828-3.012 4.1-4.523 6.036-.103.13-.204.26-.304.391-.383.498 0 .723.523.59l.325-.083c.76-.195 1.519-.389 2.279-.582.42-.108.843-.241 1.269-.324.175-.033.343-.006.508.003-.08.121-.19.34-.213.373-.248.385-.498.769-.749 1.151-.49.743-.982 1.486-1.492 2.215-1.99 2.843-4.138 5.558-6.265 8.297-.536.69-1.08 1.371-1.631 2.047l.006-.013 1.492-2.895c.945-1.834 1.881-3.673 2.836-5.502l.15-.285c.198-.38-.128-.773-.535-.693-1.986.39-3.952.87-5.894 1.437a.357.357 0 0 1-.331.098c-.078.023-.157.045-.235.069l.072-.146c-.079-.069-.119-.175-.067-.308 1.118-2.875 2.65-5.65 4.466-8.193l-.22.005a23.917 23.917 0 0 0-5.868.88c-.01-.177.098-.451.156-.582.233-.522.5-1.032.75-1.545l1.533-3.165c.5-1.03.995-2.064 1.465-3.11.247-.547.493-1.096.739-1.644.2-.447.359-.897.525-1.354.488.142 6.756.173 8.28.279.373.026.748.05 1.122.07.298.017.718.082.924-.186l.078.065c-.677.807-1.325 1.636-1.976 2.464Zm-24.473-14.99.092-.041a.563.563 0 0 0 .054.063c.05.05.097.103.148.152a22.912 22.912 0 0 1-.294-.174Zm43.807 45.892c-.056-1.19-.119-2.38-.186-3.569-.133-2.326-.27-4.651-.452-6.974-.372-4.706-.717-9.41-1.273-14.1-.234-1.965-.56-3.916-.887-5.867l.127-.112c-.045.534.682.872 1.042.34.027-.04.054-.08.08-.122.312-.503 1.031-2.97.981-3.18-.09-.376-.341-.711-.537-1.043-.171-.29-.344-.58-.519-.867a40.99 40.99 0 0 0-1.088-1.703c-.782-1.155-1.637-2.264-2.644-3.233-1.043-1.005-2.24-1.83-3.476-2.579a22.703 22.703 0 0 0-1.83-.989c-.616-.299-1.29-.63-1.954-.8-.037-.01-.076.043-.042.07.177.14.361.27.548.396a6.467 6.467 0 0 0-1.558-.347c-1.022-.358-2.055-.685-3.072-1.058-.999-.368-1.984-.78-2.648-1.651-.567-.744-.926-1.655-1.202-2.542-.303-.977-.424-1.993-.704-2.972-.022-.08-.152-.088-.17 0-.2 1.027-.19 2.182-.076 3.219.12 1.088.426 2.155 1.095 3.04.776 1.027 1.83 1.6 3.015 2.056.956.37 1.924.745 2.903 1.075-.128.083-.258.167-.391.246a15.91 15.91 0 0 1-1.647.844c-1.031.458-2.116.801-3.208 1.08a27.013 27.013 0 0 1-6.21.812c-4.193.07-8.431-.806-12.266-2.496-1.08-.476-2.133-1-3.177-1.55a72.178 72.178 0 0 1-.98-.522l.083-.006a12.2 12.2 0 0 0 2.151-.406c1.443-.406 2.825-1.039 4.183-1.662 1.152-.528 2.338-1.13 3.041-2.231.376-.589.55-1.28.69-1.956.156-.753.34-1.509.454-2.27.04-.265-.02-.625-.306-.751a.796.796 0 0 0-.338-.09c-.284 0-.576.205-.644.488-.168.704-.27 1.429-.401 2.14-.114.616-.218 1.259-.551 1.8-.583.948-1.724 1.433-2.69 1.895-1.222.585-2.446 1.154-3.716 1.63-.56.208-1.129.398-1.706.553a.528.528 0 0 0-.08-.402c-.14-.185-.298-.307-.477-.448-.195-.154-.457-.234-.688-.166a.478.478 0 0 0-.303.036c-.33.15-.658.302-.987.456-4.725 2.217-9.316 4.82-12.793 8.784-.5.572-.97 1.173-1.41 1.793-.428.602-.957 1.255-1.075 2.001-.01.062.081.091.097.027.028-.115.066-.228.112-.337-.097.34-.092.7.046 1.056.163.418.462.695.84.805-.38 1.657-.634 3.336-.84 5.034a132.38 132.38 0 0 0-.66 7.355c-.314 4.905-.454 9.835-.352 14.75.028 1.388.076 2.777.148 4.165.036.695.075 1.388.12 2.082.045.683.008 1.435.606 1.795l.023.08c.145.504.79.342.851-.115l.003-.016c.488-.371.414-.99.378-1.584-.038-.641-.08-1.281-.114-1.922a292.338 292.338 0 0 1-.17-3.685 223.53 223.53 0 0 1-.171-7.295c-.036-4.865.246-9.722.58-14.573.14-2.029.304-4.05.354-6.077.26-.136.341-.521.21-.781 3.095 2.105 5.966 4.622 8.272 7.547.385.488.753.991 1.105 1.503.115.167.223.34.333.513-.106.483-.189.973-.297 1.436-.223.957-.317 1.949-.445 2.92-.26 1.974-.442 3.966-.597 5.95-.305 3.92-.53 7.837-.602 11.767-.04 2.223-.092 4.46.007 6.682-.073.434.319.859.73.914a.837.837 0 0 0 .852-.438c1.12.139 2.27.203 3.384.211 1.5.01 2.999.009 4.499-.023 3-.066 6-.142 8.999-.231l17.997-.531 4.991-.147c.75-.022 1.686.193 2.277-.384.101-.1.18-.216.236-.341.177.044.394.001.51-.136.217-.255.377-.492.369-.847-.008-.331-.099-.681-.147-1.009-.09-.616-.177-1.233-.26-1.85-.163-1.22-.315-2.442-.455-3.664-.287-2.5-.547-5.005-.75-7.513-.403-4.96-.517-9.945-.503-14.92l.006-1.334c.019.023.04.045.062.064l.054.047c.21.184.558.279.81.105.309-.2.522-.498.762-.769.254-.283.514-.559.777-.833.509-.531 1.036-1.04 1.573-1.543l.131-.12c.003 1.584.001 3.166.044 4.749.064 2.35.192 4.7.309 7.047.232 4.649.473 9.296.705 13.944.065 1.298.126 2.596.191 3.894l.096 1.947.049 1.055c.018.377-.006.78.122 1.139.29.819 1.547.935 1.789 0 .151-.587.035-1.267.008-1.87l-.085-1.785Z" fill="#2B283A"></path><path fill-rule="evenodd" clip-rule="evenodd" d="M94.837 10.296c4.806 0 10.826 5.478 12.587 7.809 1.482 1.96 1.272 12.055 1.272 18.045 0 1.252-.567 3.623-.772 4.82-.754 4.391-4.039 8.073-10.54 8.073-5.292 0-9.365-1.675-13.304-5.96-.899-.976-5.288 2.523-6.185 1.263-2.344 0-4.305-21.885.298-28.45 4.603-6.563 11.838-5.6 16.644-5.6Z" fill="#fff"></path><path fill-rule="evenodd" clip-rule="evenodd" d="M80.392 11.838c2.777-2.525 6.477-3.74 10.21-3.65 1.933.047 3.86.415 5.685 1.045.913.316 1.798.729 2.643 1.196.305.168.586.364.857.573l.067.053c.726.26 1.374.728 1.961 1.275 1.178-.094 2.364.012 3.503.375 1.584.505 3.051 1.431 4.081 2.746 1.2 1.531 1.599 3.388 1.457 5.305l-.027.326c-.14 1.694-.392 3.872-1.784 4.985a1.077 1.077 0 0 1-.343.187c.896 1.534 1.632 3.237 2.072 4.958 1.68 6.57.388 13.422-1.632 19.754-.166.522-.956.869-1.358.359-.718-.912-1.76-1.607-2.934-1.737-.723-.08-1.444.065-2.127-.263a1.94 1.94 0 0 1-.714-.598 9.223 9.223 0 0 1-3.631.593c-2.024-.083-4.188-.784-5.58-2.32a.865.865 0 0 1-.229-.772 2.97 2.97 0 0 1 .539-.138c1.766 1.04 3.712 1.735 5.804 1.778 1.208.026 2.387-.143 3.367-.897.212-.164.407-.344.588-.538 2.049-1.317 3.493-3.554 4.18-5.95.64-2.234.561-4.56.341-6.853l-.116-1.21c-.169-1.774-.326-3.554-.37-5.337h.013c.433-.029.436-.705 0-.677-1.127.073-2.246-.112-3.37-.032-.009-.53-.048-1.059-.204-1.57-.089-.293-.599-.351-.653 0-.072.468-.099.934-.106 1.404-1.682-.022-3.363-.164-5.045-.105-.31-.331-.409-.918-.554-1.325l-.065-.18a9.575 9.575 0 0 1-.546 1.711l-.412.002c-2.341.01-4.73.08-7.015.566-.16-.122-.254-.334-.28-.527-.165-1.257-.402-2.48-.821-3.677l-.06-.169-.016-.044a9.126 9.126 0 0 1-1.08 1.395c-.237.255-.485.499-.74.736-.248.275-.504.546-.752.821.01.05.018.101.025.153.076.572.084 1.152.028 1.727a8.274 8.274 0 0 1-.865 2.964l-.015.093c-.072.433-.173.882-.411 1.208.297.332.525.73.658 1.17.118.393-.426.733-.707.411a3.281 3.281 0 0 0-.746-.634c-.018.023-.049.035-.084.015-.76-.422-2.053-.294-2.813.103-.946.494-1.315 1.508-1.21 2.536.1.981.53 2.13 1.365 2.632.382.231.68.25 1.086.14.13-.035.291-.144.36-.197l.069-.055c.266-.21.514-.354.828-.36.322-.1.645.04.768.376l.008.022c.057.172.162.387.14.65-.024.28-.153.535-.345.741a1.745 1.745 0 0 1-.105.104c3.31 3.58 3.734 9.158 2.037 13.63-.073.196-.152.39-.234.582-.284.658-1.376.454-1.514-.198a14.485 14.485 0 0 0-.453-1.64l-.045-.13c-.1-.288-.195-.578-.296-.865l-.01-.033a3.698 3.698 0 0 1-.013-.045l-.172.375-.522 1.13c-.245.528-1.021.241-1.05-.267v-.018a9.004 9.004 0 0 0-.358-2.299l-.07.086c-1.018 1.258-2.213 2.437-3.853 2.727-.412.073-.877-.356-.595-.772.117-.171.23-.347.337-.526a3.671 3.671 0 0 1-.26-.133c-.622-.35-1.14-.847-1.569-1.41-.908-1.197-1.233-2.702-1.313-4.175-.084-1.557.053-3.199.479-4.7.184-.65.434-1.273.722-1.878l-.059-.162a25.837 25.837 0 0 1-1.466-8.194c-.05-3.335.525-6.723 1.738-9.832 1.253-3.207 3.137-6.296 5.7-8.626Zm-1.56 29.154c-.23-.362-.806-.036-.592.329l.008.013c.364.574.535 1.227.745 1.867.135.412.79.236.653-.18l-.045-.14c-.209-.648-.4-1.308-.77-1.889Zm2.003-6.908.153-.074c.482-.23.905-.386 1.474-.185.763.268 1.58 1.121 1.064 1.95-.19.304-.526.426-.873.354-.586-.12-.736-.647-1.033-1.08l-.051-.073c-.181-.261-.41-.623-.712-.725-.068-.024-.097-.13-.022-.167Zm.43-17.578.05-.044c.327-.29-.154-.766-.48-.479-1.491 1.317-2.01 3.378-2.783 5.134-.173.395.41.74.585.342.738-1.676 1.228-3.681 2.628-4.953Zm17.923-.576c-.39-.175-.73.391-.356.578l.014.006c1.317.595 1.877 1.941 2.414 3.191.171.4.754.055.585-.34l-.097-.225c-.56-1.288-1.213-2.601-2.56-3.21Zm2.064-.813c-.413-.144-.59.51-.18.652 1.116.388 1.882 1.226 2.528 2.183.242.359.829.02.584-.342-.75-1.11-1.64-2.044-2.932-2.493Z" fill="#2B283A"></path><path fill-rule="evenodd" clip-rule="evenodd" d="M101.156 35.35c.684.414 1.725 1.379.99 2.405-.866.905-2.111-.133-2.725-.602-.569-.364-1.209.572-.68.996 4.435 3.273 6.235-2.691 2.761-3.286-.383-.066-.525.359-.346.487Zm-6.172-7.894.17-.03.087-.014c.508-.084 1.112-.14 1.463.258.197.223.265.638 0 .852-.466.376-.981.23-1.54.262-.46.026-.903.102-1.346.229-.973.277-1.765.782-2.596 1.338-.11.073-.22-.066-.168-.168.48-.936 1.409-1.705 2.34-2.174.496-.25 1.04-.458 1.59-.553Zm4.5 12.935c1.486.108 4.708-.6 6.046.461 5.041 6.275-14.947 7.889-12.788.946 1.375-2.245 4.537-1.342 6.742-1.407Zm-.255 3.788c-.368-.03-.814.26-.922.485-.108.224-.066.698-.063.78a11.73 11.73 0 0 0 1.936.033c-.168-.552-.173-1.214-.951-1.298Zm2.968.926c-.104-.685-.595-.847-.993-.744-.408.105-.647.572-.621.988.002.029-.015.053-.026.076a11.154 11.154 0 0 0 1.64-.32Zm-4.56-.802c-.231-.351-.785-.52-1.14-.459-.58.122-.648.855-.648 1.005a10.25 10.25 0 0 0 1.643.445c.11.021.218.04.328.059l.007-.09c.013-.19.023-.638-.19-.96Zm6.553-.058c-.594-.916-1.87-.26-1.765.74.114-.035.226-.072.339-.111.466-.162.978-.355 1.426-.629Zm-4.676-3.156c-.799-.071-1.454-.047-1.975.05l-.016.173c-.058.601-.132 1.193.185 1.435.257.196 1.111.178 1.684.035.142-.035.326-1.283.122-1.693Zm1.236-.071c-.128.593-.188 1.313.069 1.526.271.226 1.145.196 1.374.045.2-.131.195-.737.121-1.417-.443-.104-1.214-.154-1.564-.154Zm-3.565.126-.261.003-.149.002a6.017 6.017 0 0 0-1.16.11c-.759 1.635 2.012 1.917 1.584-.054l-.014-.06Zm5.481.04-.005.092c-.023.46-.007 1.064.248 1.227.375.24 1.08.194 1.462-.917-.126-.331-1.467-.378-1.705-.402Zm-7.353-9.745c.16 0 .314.054.453.155.138.099.262.243.366.423.196.34.319.81.319 1.33s-.123.99-.319 1.33c-.104.18-.228.325-.366.424a.771.771 0 0 1-.453.154.772.772 0 0 1-.454-.154 1.337 1.337 0 0 1-.366-.423c-.196-.34-.319-.811-.319-1.33 0-.52.123-.99.32-1.331.103-.18.228-.324.365-.423.14-.1.293-.155.454-.155Zm10.154 0c.161 0 .314.054.454.155.137.099.262.243.366.423.196.34.319.81.319 1.33s-.123.99-.319 1.33c-.104.18-.229.325-.366.424a.772.772 0 0 1-.454.154.77.77 0 0 1-.453-.154 1.335 1.335 0 0 1-.366-.423c-.196-.34-.319-.811-.319-1.33 0-.52.123-.99.319-1.331.104-.18.228-.324.366-.423a.77.77 0 0 1 .453-.155Zm-1.381-4.402.13.026.086.018c1.402.3 3.18.894 3.836 2.25.026.197-.001.239-.023.266l-.007.009c-.018.023-.033.056-.118.082l-.072-.017c-.307-.08-.55-.191-.785-.306l-.255-.125a7.017 7.017 0 0 0-.911-.387 10.753 10.753 0 0 0-2.074-.457.85.85 0 0 1-.416-.157.617.617 0 0 1-.233-.353.628.628 0 0 1 .072-.53.671.671 0 0 1 .328-.282.774.774 0 0 1 .442-.038Z" fill="#2B283A"></path><path fill-rule="evenodd" clip-rule="evenodd" d="M101.156 35.35c.684.414 1.724 1.379.99 2.405-.866.905-2.111-.133-2.725-.602-.57-.364-1.209.572-.68.996 4.435 3.273 6.235-2.691 2.761-3.286-.383-.066-.525.359-.346.487Zm-6.172-7.894.17-.03.087-.014c.508-.084 1.112-.14 1.463.258.197.223.265.638 0 .852-.466.376-.981.23-1.54.262-.46.026-.903.102-1.346.229-.973.277-1.765.782-2.596 1.338-.11.073-.22-.066-.168-.168.48-.936 1.409-1.705 2.34-2.174.496-.25 1.04-.458 1.59-.553Zm4.5 12.935c1.486.108 4.708-.6 6.046.461 5.041 6.275-14.947 7.889-12.788.946 1.375-2.245 4.537-1.342 6.742-1.407Zm-.255 3.788c-.368-.03-.814.26-.922.485-.108.224-.066.698-.063.78.643.065 1.291.075 1.936.033-.168-.552-.173-1.214-.951-1.298Zm2.968.926c-.104-.685-.595-.847-.993-.744-.408.105-.647.572-.621.988.002.029-.015.053-.026.076a11.167 11.167 0 0 0 1.64-.32Zm-4.56-.802c-.231-.351-.785-.52-1.14-.459-.58.122-.648.855-.648 1.005.534.203 1.101.337 1.643.445.11.021.218.04.328.059l.007-.09c.013-.19.023-.638-.19-.96Zm6.553-.058c-.594-.916-1.87-.26-1.765.74.114-.035.226-.072.339-.111.466-.162.978-.355 1.426-.629Zm-4.676-3.156c-.799-.071-1.454-.047-1.975.05l-.016.173c-.058.601-.132 1.193.185 1.435.257.196 1.111.178 1.684.035.142-.035.326-1.283.122-1.693Zm1.236-.071c-.128.593-.189 1.313.069 1.526.271.226 1.145.196 1.374.045.2-.131.195-.737.121-1.417-.443-.104-1.214-.154-1.564-.154Zm-3.565.126-.261.003-.149.002a6.017 6.017 0 0 0-1.16.11c-.759 1.635 2.012 1.917 1.584-.054l-.014-.06Zm5.481.04-.005.092c-.023.46-.007 1.064.248 1.227.375.24 1.08.194 1.462-.917-.126-.331-1.467-.378-1.705-.402Zm-7.353-9.745c.16 0 .314.054.453.155.138.099.262.243.366.423.196.34.319.81.319 1.33s-.123.99-.319 1.33c-.104.18-.228.325-.366.424a.772.772 0 0 1-.453.154.772.772 0 0 1-.454-.154 1.337 1.337 0 0 1-.366-.423c-.196-.34-.319-.811-.319-1.33 0-.52.123-.99.32-1.331.103-.18.228-.324.365-.423.14-.1.293-.155.454-.155Zm10.154 0c.161 0 .314.054.454.155.137.099.262.243.366.423.196.34.319.81.319 1.33s-.123.99-.319 1.33c-.104.18-.229.325-.366.424a.772.772 0 0 1-.454.154.77.77 0 0 1-.453-.154 1.335 1.335 0 0 1-.366-.423c-.196-.34-.319-.811-.319-1.33 0-.52.123-.99.319-1.331.104-.18.228-.324.366-.423a.77.77 0 0 1 .453-.155Zm-1.381-4.402.13.026.086.018c1.402.3 3.18.894 3.836 2.25.026.197-.001.239-.023.266l-.007.009c-.018.023-.033.056-.118.082l-.072-.017c-.307-.08-.55-.191-.785-.306l-.255-.125a7.017 7.017 0 0 0-.911-.387 10.753 10.753 0 0 0-2.074-.457.85.85 0 0 1-.416-.157.617.617 0 0 1-.233-.353.628.628 0 0 1 .072-.53.671.671 0 0 1 .328-.282.774.774 0 0 1 .442-.038Z" fill="#2B283A"></path><path fill-rule="evenodd" clip-rule="evenodd" d="M20.871 62.224c4.078-.896 6.496-.896 7.865-2.283 1.368-1.387 1.617-3.768 2.184-5.607.313-1.013 3.378-1.933 6.35-1.789 2.423.117 4.865 1.137 5.053 1.79.42 1.45 1.096 7.665 3.317 8.62 2.221.954 6.963.084 8.319 2.364 1.355 2.28 5.808 11.574 5.808 13.74 0 2.165-43.53 1.503-43.53 1.503s.556-17.443 4.634-18.338Z" fill="#fff"></path><path fill-rule="evenodd" clip-rule="evenodd" d="M3.095 112.668c.062.044.013.045 0 0Zm-.242-.18.014.01c-.049-.004-.08-.054-.014-.01Zm64.42-5.741-.82-3.497-1.713-7.312-3.353-14.302c-.568-2.423-1.217-4.827-1.802-7.245-.513-2.12-.937-4.29-1.817-6.297-.899-2.048-2.477-3.76-4.567-4.628-1.76-.73-3.74-1.134-5.657-1.226.241-.294.298-.73-.054-1.085-.436-.44-.524-1.094-.64-1.676-.145-.728-.37-1.508-.805-2.12-.183-.26-.45-.38-.765-.31a7.782 7.782 0 0 0-.57.148 1.34 1.34 0 0 1-.173-.203c-.12-.182-.196-.447-.367-.586-.115-.095-.246-.117-.381-.049-.363.184-.393.74-.316 1.081.016.067.035.133.058.197l-.075.035h-.001c-.474-.09-1.078.1-1.54.145a25.122 25.122 0 0 1-4.921-.002 39.61 39.61 0 0 1-3.191-.47c-.659-.12-1.461-.22-2.04-.614-.009-.197-.014-.395-.018-.591-.008-.343.01-.611-.173-.912-.002-.003-.006-.004-.01-.002-.226.117-.389.318-.507.557a1.025 1.025 0 0 0-.653.034 2.105 2.105 0 0 0-.72.474c-.33.324-.428.703-.524 1.138-.07.312-.113.535-.238.744a2.003 2.003 0 0 1-.087.136 6.822 6.822 0 0 1-.178.177c-.02.02-.126.106-.11.094-.453.337-.863.463-1.423.624-1.206.346-2.441.573-3.643.94-1.313.402-2.597.89-3.853 1.445-4.884 2.156-9.255 5.57-12.236 10.017-3.471 5.179-4.749 11.47-5.382 17.567-.693 6.684-.645 13.444-.796 20.156l-.057 2.518c-.018.821-.07 1.704.661 2.257.652.492 1.444.337 2.165.116a18.623 18.623 0 0 1 2.353-.558c1.5-.253 3.048-.283 4.562-.136.813.079 1.808.38 2.477-.256.24-.228.378-.518.491-.823.141-.375.306-.744.47-1.113l.403-.914.654 2.855c.086.375.478.404.715.222.386.206.894.202 1.333.253.706.081 1.418.108 2.127.133 1.39.047 2.78.073 4.171.091 2.836.036 5.671.023 8.506.011 5.616-.025 11.232-.139 16.846-.284 1.58-.041 3.162-.078 4.742-.116.79-.019 1.58-.038 2.37-.06.238-.006.477-.028.701-.081.1.088.224.155.37.195.525.143 1.047-.177 1.204-.682.073-.232.124-.444.106-.67l.081-.509c.877.553 1.928.703 2.966.634 1.174-.077 2.348-.291 3.512-.451 1.094-.149 2.866-.101 2.919-1.607.018-.551-.215-1.169-.34-1.7l-.447-1.907Z" fill="#2B283A"></path><path fill-rule="evenodd" clip-rule="evenodd" d="M39.84 20.965c3.79 0 8.337 1.835 8.723 1.872h.01c.204 0 1 .605 2.385 1.815l-1.501 2.926.121.116c.582.557 1.078 1.064 1.47 1.465 3.199 3.267 3.774 16.095 3.02 20.569-.754 4.473-2.15 8.85-8.65 8.85-6.502 0-13.733-3.904-14.848-5.12-.742-.811-1.576-1.2-2.502-1.166a26.157 26.157 0 0 1-.113-.143l-.137-.02c-1.28-.185-2.199-.434-2.754-.748-1.084-.613-2.275-3.833-2.275-4.542 0-.703-1.778-5.812-1.814-6.352v-.015c0-.452-2.324-2.53-2.324-3.19 0-.66-.468-.62 0-2.945l.136-.683c.499-2.475 1.474-6.574 5.194-8.356 4.087-1.957 12.032-4.333 15.86-4.333Z" fill="#fff"></path><path fill-rule="evenodd" clip-rule="evenodd" d="M23.35 25.206c2.038-2.161 13.61-5.505 19.466-4.796l.175.023c.468.059.928.148 1.383.27 1.468.343 2.986.862 4.2 1.729 1.013.709 4.21 1.867 3.267 3.723.35.66.48 1.478.244 2.129-.03.225-.1.432-.188.647.746 1.1 1.337 2.345 1.815 3.528.836 2.979 1.356 6.078 1.432 9.117.254 5.774-.38 12.67-5.413 16.404-3.04 2.366-7.803 2.446-11.22-.488-.194-.229-1.106-.848-.802-.956.091.095.184.188.279.28a.056.056 0 0 1-.003-.032l-.09-.08c-.167-.155-.385-.38-.137-.336l.034.036c.053.031.093.059.123.083l.016.012-.005-.005c-.142-.152-.228-.307-.015-.208l.029.014c.095.1.191.195.29.288a.055.055 0 0 1 .005-.034l-.091-.088c-.09-.087-.076-.088-.032-.159-.19-.266.164-.108.19-.004.221-.052.416.364.559.415 6.263 4.81 15.353.542 15.206-12.864l-.003-.263c-.043-4.287-.404-8.693-2.178-12.573a11.155 11.155 0 0 0-.578-1.09 10.502 10.502 0 0 0-.472-.77 6.997 6.997 0 0 1-1.396-.258 6.764 6.764 0 0 1-.469-.136c-2.275.124-4.5.26-6.78.387l-.714.044c-1.932.125-3.931.323-5.49 1.518-1.531 1.087-1.538 3.231-2.848 4.425-1.868 1.267-1.882 2.41-2.242 4.276.027 1.407 1.004 3.452-.789 4.044.303.43-.119.224-.152.073a.04.04 0 0 1-.01.002c.27.5-.126.185-.16.024a.155.155 0 0 1-.064-.042c.271.438-.168.131-.142.051-.524-.805-1.604-.93-2.365-.717-.009.029-.043.032-.064.016-3.236.7-2.4 7.393.915 6.746.142-.029.139.04.167.046-.077-.2.14-.12.137-.077h.013c.01-.002.006-.003.014 0-.074-.41.343.184.31.209a.107.107 0 0 1 .04-.014l-.015-.039c-.069-.184-.063-.107-.063-.213-.052-.13-.055-.073-.043-.158.182-.141.236.288.297.32-.104-.146-.021-.265.078-.186.746 1.57 1.711 3.044 2.958 4.206.136.107.274.213.417.312.53.462 1.344.759 1.84 1.167a.05.05 0 0 1-.008.024l.011.01.012.011.172.083a.93.93 0 0 1 .137.145c.044.05.082.105.114.163.016.071-.02.1-.087.07l-.09-.033.005.006c.01.015.075.167 0 .142l-.01-.003-.123-.048c.048.06.092.125.131.18a.286.286 0 0 1 .077.151c-.001.032-.02.046-.051.041a4.042 4.042 0 0 1-.146-.05l.014.026c.034.067.082.18-.004.142a2.728 2.728 0 0 1-.215-.078c-.007.012-.018.016-.042.005a4.368 4.368 0 0 1-.653-.294c-.184-.134-.37-.265-.554-.397a4.253 4.253 0 0 1-.501-.35 10.91 10.91 0 0 1-2.751-2.546c-1.243 1.076-3.73.048-5.267-.794-1.36-.753-1.895-2.145-2.033-3.645-.287-2.02-1.94-2.711-1.825-7.144l-.008.001a.855.855 0 0 1-.174-.072.864.864 0 0 1-.16-.098l-.062-.085a.519.519 0 0 1-.082-.055l-.012.015c-.036.043-.012-.022-.01-.035l-.107-.146c-.254-.348-.534-.737-.761-1.049l-.007.013c-.005.01-.008.017-.006.02-.541-.777-1.05-1.716-1.191-2.625-.167-.7-.102-1.42.043-2.069.625-2.27 2.671-7.408 5.358-9.61Zm14.69 31.397-.035-.03.03.037c.016.02.032.037.058.054a.048.048 0 0 1-.001-.018 1.17 1.17 0 0 1-.053-.043Zm4.75-35.053c-3.97-.34-7.876.533-11.665 1.591l-.261.075c-2.155.614-4.433 1.167-6.253 2.482-2.544 1.946-3.857 5.043-5.003 7.902-1.001 2.124-.49 4.52 1.019 6.003.157-1.474.424-2.905.842-4.325.087-.221.021-.294.21-.323.284 3.825-1.115 6.651 1.653 11.184 1.202 2.139-.19 3.704 3.203 4.83l.092.035c.707.266 1.479.476 2.171.328l-.062-.101c-.063-.104-.082-.154.01-.199l-.01-.016c-.074-.14-.146-.282-.215-.426-.027.01-.055.016-.084.023.018.035.02.07-.032.082-.186.064-.378.09-.574.077l-.042-.003a1.942 1.942 0 0 1-.486-.091 3.127 3.127 0 0 1-.123-.022 2.863 2.863 0 0 1-1.102-.54c-3.137-1.78-2.813-7.84 1.054-8.412.079-3.815 1.895-10.251 4.91-13.887 2.724-3.344 10.162-4.793 15.337-4.282l.226.076c.798.07 1.56.426 2.358.591-.574-.43-1.224-.716-1.895-.959-1.335-.816-2.866-1.258-4.345-1.569a4.281 4.281 0 0 0-.933-.123ZM26.955 44.77c.208-.113.184-.004.232-.036 1.495-.121 3.107 1.187 3.943 2.277-.066.069-.244-.134-.276-.167a.04.04 0 0 1-.014.01l.023.032c.339.486-.333-.085-.396-.203a.05.05 0 0 1-.034.007c.053.052.215.188.243.285l.044.036c.406.347.372.609-.09.115.012.023.016.044.008.06l.016.011c.227.159.414.6-.06.147.049.331-.47-.309-.487-.304-.899-.705-2.222-1.39-3.35-1.483l-.038-.004c-.207-.027-.305-.088-.233-.223-.254-.06-.195-.186-.074-.182-.18-.118-.018-.231.086-.187-.071-.198.216-.066.242-.094.15-.23.19-.038.215-.097ZM23.82 32.477c.718-.263 2.84.524 2.67 1.566-.1.24-.434.376-.668.241l-.305-.205a19.46 19.46 0 0 0-1.582-.978c-.31-.154-.444-.48-.115-.624Zm4.086-1.549-.277-.18c-1.497-.979-3.613-2.462.14-.928.428.184.996.292 1.23.7.366.75-.599.8-1.093.408Zm.169-4.391c-.12-.456 1.374.079 1.81.22l.065.025c.424.157.909.303 1.162.668.297.504-.304.609-.676.381-.762-.498-1.598-.873-2.361-1.294Zm3.8-2.122c-.841-.918 1.41-.038 1.748.206l.01.007c.25.177.2.558-.037.67-.672.013-1.167-.547-1.72-.883Zm3.828-1.005c-1.337-.96.425-.504 1.036-.128.418.368-.012.988-1.036.128Z" fill="#2B283A"></path><path fill-rule="evenodd" clip-rule="evenodd" d="M40.148 48.147c1.55-.188 3.054.286 4.57.524.8.126 1.602.22 2.412.255.163.007.326.011.49.015a.427.427 0 0 1 .269-.354c.356-.16.642-.233 1.034-.218.358.014.718.051 1.071.115.641.118 1.285.383 1.754.845 1.086 1.07.92 2.786.082 3.95-1.733 2.406-4.895 2.518-7.604 2.486l-.25-.003c-2.466-.035-5.994.331-7.115-2.465a3.917 3.917 0 0 1 .15-3.207c.602-1.177 1.868-1.79 3.137-1.943Zm7.703 4.006h-.022a164.47 164.47 0 0 1-3.411.095 44.921 44.921 0 0 0 .207 1.558c.015.097.07.247.054.342l-.006.038a.347.347 0 0 1 .151.13c.014.022.024.043.034.065.883.007 1.834-.01 2.734-.17l.002-.02a.371.371 0 0 1 .128-.245c.063-.365.057-.755.081-1.118l.048-.675Zm-4.302.11c-.82.014-1.64.025-2.46.015l-.371-.006c.078.42.164.839.235 1.262.074.44-.315.72-.652.71l.113.017c1.053.148 2.145.11 3.213.108-.057-.334-.034-.712-.042-.99l-.002-.044a39.189 39.189 0 0 1-.034-1.072Zm-5.567-.077c.028.219.084.432.166.631.35.841 1.152 1.234 2 1.399-.146-.05-.263-.173-.293-.381a11.51 11.51 0 0 1-.102-1.572 19.726 19.726 0 0 1-1.771-.077Zm12.953-.18c-.42.1-.91.054-1.323.073l-1.161.048.055.79c.025.34.027.7.093 1.039.779-.265 1.477-.69 2-1.37.13-.169.247-.368.336-.58Zm-10.965-2.48c-.701.166-1.364.515-1.721 1.155-.212.38-.305.829-.287 1.272a22.672 22.672 0 0 1 1.795-.117l.008-.322.009-.275c.016-.524.024-1.183.196-1.712Zm3.628.065-.309-.035c-.857-.097-1.714-.2-2.57-.14-.125.008-.25.021-.377.04.152.544.139 1.184.202 1.724.025.208.056.415.09.621l.149-.007c.92-.05 1.84-.08 2.76-.116 0-.173.001-.345.004-.517l.003-.173c.01-.44-.018-.936.048-1.397Zm4.303-.07c-.897.144-1.825.175-2.707.176-.352 0-.704-.021-1.056-.052.023.186.035.375.052.56.035.371.075.743.118 1.114l.038.325c1.132-.051 2.263-.107 3.394-.164l.16-.008.044-.625c.03-.416.064-.832.112-1.246l-.036-.013a.584.584 0 0 1-.119-.067Zm.39.155c.05.588.077 1.179.113 1.768l.746-.04.373-.02c.483-.028 1.104-.174 1.581-.038.037-.432-.087-.854-.48-1.145-.687-.51-1.563-.329-2.333-.525Zm-2.547-5.26c1.11-.634 3.896-1.282 4.072.71.081.916-.602 1.675-1.4 2.014l-.03.013c-.75.306-2.076.653-2.724-.012-.54-.554.176-1.547.846-1.093.344.233 1.07.06 1.453-.05l.025-.007c.414-.121.967-.51.796-1.019-.152-.45-.798-.532-1.202-.547-.604-.022-1.191.118-1.79.164-.094.007-.123-.13-.046-.174Zm4.599-3.203c1.507-.07 2.444 1.57 2.098 2.913-.06.232-.32.46-.572.434l-.063-.006a.57.57 0 0 1-.094-.016c-.238-.065-.452-.313-.435-.569l.005-.075c.035-.634-.034-1.366-.791-1.52-.642-.13-1 .486-1.008 1.053-.001.1-.115.17-.204.117-.464-.282-.544-.842-.367-1.324.224-.61.787-.977 1.43-1.007Zm-11.183.352c1.097-.365 2.28.218 2.811 1.184.186.054.372.197.346.416-.037.315-.093.514-.313.753-.343.374-.985.183-1.127-.278l-.007-.02c-.161-.596-.819-.988-1.417-.78-.7.243-.68.98-1.17 1.408a.17.17 0 0 1-.196.026c-.52-.251-.427-1.007-.242-1.439.244-.567.718-1.072 1.315-1.27Zm-1.493-3.32c.889-.903 3.206-1.778 3.813-.109.116.318-.13.746-.462.812-.544.108-1.026-.127-1.566-.085-.438.035-.894.18-1.243.45-.969.748-1.182 2.013-1.856 2.964-.033.047-.097.027-.103-.027-.154-1.386.444-3.015 1.417-4.005Zm11.589-.89c.59-.207 1.257-.19 1.85-.005a3.596 3.596 0 0 1 1.568.998c.191.21.369.44.51.686.076.13.156.399.242.559.464.267.663.876.247 1.31l-.019.019-.056.055a.897.897 0 0 1-.865.228c-.683-.197-.766-.733-1.002-1.302a2.33 2.33 0 0 0-.748-.953c-.767-.577-2.024-.761-2.947-.49-.05.015-.107-.047-.072-.092.175-.226.276-.411.51-.594a2.73 2.73 0 0 1 .782-.418Z" fill="#2B283A"></path><path fill-rule="evenodd" clip-rule="evenodd" d="M56.163 42.674c-.743 5.07-5.934 5.63-6.856.597.148-.065.254-.194.232-.444-.005-1.096.333-2.256 1.314-2.866 1.015-.63 2.202-.691 3.376-.676 2.24-.053 2.193 1.834 1.934 3.389Zm-7.669-2.205c-.703-.03-1.592-.005-2.222.427-.173-.47-.623-.972-1.078-1.24 1.69.05 3.429-.118 5.131-.248-.407.28-.786.7-1.033 1.186-.228-.122-.556-.111-.798-.125Zm-3.099 2.742c-1.949 6.764-6.815 3.816-7.346 2.95-.956-1.435-1.136-4.922-.303-5.855 1.193-.843 2.882-.626 4.292-.646 2.59.035 4.428.816 3.357 3.551Zm13.07-3.11c-.53-.07-1.095-.085-1.588.15a2.137 2.137 0 0 0-1.165-1.431c-.065-.083-.055-.127-.277-.114-1.365-.414-2.892-.195-4.203.229-2.07.176-4.243.314-6.332.556-1.956-.885-7.86-1.015-8.226 1.168-.462-.07-1.248-.436-1.636.06-2.844-.485-5.783.19-8.64.491-.719.134-1.09 1.572-.273 1.553.459-.126-.014-.896.604-.954 2.756-.304 5.452-.734 8.237-.785-.097.485 1.841.517 1.87.234l.013.005c-.48 1.8-.047 4.39.819 5.505 1.213 1.462 4.258 1.88 5.608.94 1.742-.867 3.554-5.223 3.045-6.67.924-.295 1.837-.206 2.796-.056-.22.625-.599 2.163-.054 2.297-.1 3.054 2.658 4.96 5.2 3.707 2.2-1.041 2.97-4.337 2.7-6.337.274.533 2.574-.047 1.502-.549Z" fill="#2B283A"></path></svg>